<svg id="Layer_1" data-name="Layer 1" xmlns="http://www.w3.org/2000/svg" viewBox="0 0 115.82 55.22"><defs><style>.cls-1{fill:#fff;}.cls-2{fill:#f3c31b;}</style></defs><title>Logo_140x64</title><path class="cls-1" d="M74.52,21.08V8.41h4.9V9.73H76.31v4.19h2.56v1.32H76.31v4.58h3.16v1.32Z" transform="translate(-12.48 -4.13)"/><path class="cls-1" d="M82.89,21.21a1.88,1.88,0,0,1-1.73-.84,5.49,5.49,0,0,1-.54-2.83v-3a5.66,5.66,0,0,1,.2-1,2.9,2.9,0,0,1,.38-.86,1.75,1.75,0,0,1,.63-.55,2,2,0,0,1,.94-.21,2.08,2.08,0,0,1,1.5.7V8.41H86V21.08H84.29V20.5A2,2,0,0,1,82.89,21.21Zm.42-1.32a1.94,1.94,0,0,0,1-.34V13.63a1.82,1.82,0,0,0-1.05-.4q-1,0-1,1.88v3.28a4.43,4.43,0,0,0,.08.61,1.54,1.54,0,0,0,.17.49.84.84,0,0,0,.3.29.86.86,0,0,0,.42.11Z" transform="translate(-12.48 -4.13)"/><path class="cls-1" d="M89,21.2A1.32,1.32,0,0,1,88.3,21a1.07,1.07,0,0,1-.42-.43,2.19,2.19,0,0,1-.21-.58,3.39,3.39,0,0,1,0-.66V12h1.67v6.84a1.53,1.53,0,0,0,.16.78.61.61,0,0,0,.57.25,2,2,0,0,0,1.17-.55V12h1.67v9.05H91.17v-.9A3.2,3.2,0,0,1,89,21.2Z" transform="translate(-12.48 -4.13)"/><path class="cls-1" d="M96.17,21.21a1.61,1.61,0,0,1-1.32-.63,2.24,2.24,0,0,1-.53-1.46A3.1,3.1,0,0,1,94.54,18a3.85,3.85,0,0,1,.45-.84,2.79,2.79,0,0,1,.82-.67,10,10,0,0,1,.91-.49l1.12-.47h.07v-.65a3.11,3.11,0,0,0-.18-1.25.72.72,0,0,0-.72-.37q-.95,0-.95,1.32V15H94.38v-.34a2.77,2.77,0,0,1,.75-2A2.79,2.79,0,0,1,97.08,12a2.29,2.29,0,0,1,1.88.71,3.36,3.36,0,0,1,.58,2.15V19a16.45,16.45,0,0,0,.16,2.17H98.23A13.17,13.17,0,0,1,98,19.9a2.34,2.34,0,0,1-.62.84A1.67,1.67,0,0,1,96.17,21.21Zm.66-1.45a1,1,0,0,0,.63-.25,2.09,2.09,0,0,0,.46-.5V16.44a9.09,9.09,0,0,0-1.16.74,1.78,1.78,0,0,0-.7,1.41,1.51,1.51,0,0,0,.21.86A.67.67,0,0,0,96.83,19.76Z" transform="translate(-12.48 -4.13)"/><path class="cls-1" d="M101.26,21.08V12h1.67v1.32a3.23,3.23,0,0,1,1-1.09,1.91,1.91,0,0,1,1-.32h.28v1.84a2.63,2.63,0,0,0-.92-.17,1.42,1.42,0,0,0-.74.18,2,2,0,0,0-.62.67v6.59Z" transform="translate(-12.48 -4.13)"/><path class="cls-1" d="M108.33,21.21a1.88,1.88,0,0,1-1.73-.84,5.49,5.49,0,0,1-.54-2.83v-3a5.66,5.66,0,0,1,.2-1,2.9,2.9,0,0,1,.38-.86,1.75,1.75,0,0,1,.63-.55,2,2,0,0,1,.94-.21,2.08,2.08,0,0,1,1.5.7V8.41h1.67V21.08h-1.67V20.5A2,2,0,0,1,108.33,21.21Zm.42-1.32a1.94,1.94,0,0,0,1-.34V13.63a1.82,1.82,0,0,0-1.05-.4q-1,0-1,1.88v3.28a4.43,4.43,0,0,0,.08.61,1.54,1.54,0,0,0,.17.49.84.84,0,0,0,.3.29.86.86,0,0,0,.46.11Z" transform="translate(-12.48 -4.13)"/><path class="cls-1" d="M115.62,21.21A3.08,3.08,0,0,1,114.3,21a1.86,1.86,0,0,1-.82-.69,3.12,3.12,0,0,1-.43-1,6.36,6.36,0,0,1-.13-1.38V15.25a6.36,6.36,0,0,1,.13-1.38,3.12,3.12,0,0,1,.43-1,1.86,1.86,0,0,1,.82-.69,3.08,3.08,0,0,1,1.32-.22,2.32,2.32,0,0,1,2,.86,4.29,4.29,0,0,1,.61,2.49v2.63a4.29,4.29,0,0,1-.61,2.49A2.32,2.32,0,0,1,115.62,21.21Zm0-1.24a1.08,1.08,0,0,0,.4-.07.55.55,0,0,0,.28-.22,2.13,2.13,0,0,0,.16-.3,1.57,1.57,0,0,0,.09-.42V14.31a2.17,2.17,0,0,0,0-.38,2.7,2.7,0,0,0-.11-.3.62.62,0,0,0-.17-.26,1.05,1.05,0,0,0-.25-.14.9.9,0,0,0-.36,0,.92.92,0,0,0-.36,0,1,1,0,0,0-.25.14.67.67,0,0,0-.17.26,2.36,2.36,0,0,0-.11.3,2.15,2.15,0,0,0,0,.38V18.8a2.15,2.15,0,0,0,0,.38,2.2,2.2,0,0,0,.11.3.71.71,0,0,0,.17.26.84.84,0,0,0,.25.14A1,1,0,0,0,115.62,20Z" transform="translate(-12.48 -4.13)"/><path class="cls-1" d="M67.09,39.45,64.25,26.77H65.9l2,9.33,1.91-9.33h1.61L68.64,39.45Z" transform="translate(-12.48 -4.13)"/><path class="cls-1" d="M72.76,29.06V27.33h1.69v1.75Zm0,10.38V30.39h1.67v9.05Z" transform="translate(-12.48 -4.13)"/><path class="cls-1" d="M76.39,39.45V26.77h1.69V39.45Z" transform="translate(-12.48 -4.13)"/><path class="cls-1" d="M80,39.45V26.77h1.69V39.45Z" transform="translate(-12.48 -4.13)"/><path class="cls-1" d="M85,39.58a1.61,1.61,0,0,1-1.32-.63,2.24,2.24,0,0,1-.53-1.46,3.1,3.1,0,0,1,.21-1.16,3.85,3.85,0,0,1,.45-.84,2.79,2.79,0,0,1,.82-.67,10,10,0,0,1,.87-.5l1.12-.47h.07v-.65a3.11,3.11,0,0,0-.18-1.25.72.72,0,0,0-.72-.37q-.95,0-.95,1.32v.45H83.2V33a2.4,2.4,0,0,1,2.7-2.63,2.29,2.29,0,0,1,1.88.71,3.36,3.36,0,0,1,.58,2.15v4.14a16.45,16.45,0,0,0,.16,2.17H87.08a13.17,13.17,0,0,1-.22-1.32,2.34,2.34,0,0,1-.66,1A1.67,1.67,0,0,1,85,39.58Zm.66-1.45a1,1,0,0,0,.63-.26,2.09,2.09,0,0,0,.46-.5V34.82a9.09,9.09,0,0,0-1.16.74A1.78,1.78,0,0,0,84.88,37a1.51,1.51,0,0,0,.21.86A.67.67,0,0,0,85.69,38.13Z" transform="translate(-12.48 -4.13)"/><path class="cls-1" d="M90.22,39.45V26.77h1.69V39.45Z" transform="translate(-12.48 -4.13)"/><path class="cls-1" d="M93.66,42.42v-12h1.67v.72a2.19,2.19,0,0,1,1.73-.84,1.83,1.83,0,0,1,.8.17,1.46,1.46,0,0,1,.57.47,3.62,3.62,0,0,1,.37.65,3,3,0,0,1,.21.75,2.51,2.51,0,0,0,.09.72,1.11,1.11,0,0,1,0,.63v2.19q0,3.71-2.25,3.71a2.08,2.08,0,0,1-1.54-.8v3.65Zm2.87-4.18a.82.82,0,0,0,.37-.08.61.61,0,0,0,.25-.25,2,2,0,0,0,.16-.36,2.21,2.21,0,0,0,.08-.49V33a4.39,4.39,0,0,0,0-.55,1.55,1.55,0,0,0-.16-.46.79.79,0,0,0-.71-.4,1.79,1.79,0,0,0-1.13.46v5.8a2,2,0,0,0,1.15.4Z" transform="translate(-12.48 -4.13)"/><path class="cls-1" d="M102.26,39.58a1.61,1.61,0,0,1-1.32-.63,2.24,2.24,0,0,1-.53-1.46,3.1,3.1,0,0,1,.21-1.16,3.85,3.85,0,0,1,.45-.84,2.79,2.79,0,0,1,.82-.67,10,10,0,0,1,.91-.49l1.12-.47H104V33.2a3.11,3.11,0,0,0-.18-1.25.72.72,0,0,0-.72-.37q-.95,0-.95,1.32v.45h-1.66V33a2.4,2.4,0,0,1,2.7-2.63,2.29,2.29,0,0,1,1.88.71,3.36,3.36,0,0,1,.58,2.15v4.14a16.45,16.45,0,0,0,.16,2.17h-1.53a13.17,13.17,0,0,1-.22-1.32,2.34,2.34,0,0,1-.66,1A1.67,1.67,0,0,1,102.26,39.58Zm.66-1.45a1,1,0,0,0,.63-.25,2.09,2.09,0,0,0,.46-.5V34.82a9.09,9.09,0,0,0-1.16.74,1.78,1.78,0,0,0-.74,1.41,1.51,1.51,0,0,0,.21.86A.67.67,0,0,0,102.92,38.13Z" transform="translate(-12.48 -4.13)"/><path class="cls-1" d="M107.3,39.45V30.39H109v.88a3.21,3.21,0,0,1,2.21-1,1.32,1.32,0,0,1,.66.16,1.07,1.07,0,0,1,.42.43,2.21,2.21,0,0,1,.21.58,3.4,3.4,0,0,1,0,.66v7.35h-1.67V32.59a1.53,1.53,0,0,0-.16-.78.61.61,0,0,0-.57-.25,2,2,0,0,0-1.17.55v7.32Z" transform="translate(-12.48 -4.13)"/><path class="cls-1" d="M116.28,39.58a1.88,1.88,0,0,1-1.73-.84A5.49,5.49,0,0,1,114,35.9v-3a5.66,5.66,0,0,1,.2-1,2.9,2.9,0,0,1,.38-.86,1.75,1.75,0,0,1,.63-.55,2,2,0,0,1,.94-.21,2.08,2.08,0,0,1,1.5.7v-4.2h1.67V39.45h-1.67v-.58A2,2,0,0,1,116.28,39.58Zm.42-1.32a1.94,1.94,0,0,0,1-.34V32a1.82,1.82,0,0,0-1.05-.4q-1,0-1,1.88v3.28a4.43,4.43,0,0,0,.08.61,1.54,1.54,0,0,0,.17.49.84.84,0,0,0,.3.29A.86.86,0,0,0,116.7,38.26Z" transform="translate(-12.48 -4.13)"/><path class="cls-1" d="M123.56,39.58a3.08,3.08,0,0,1-1.32-.22,1.86,1.86,0,0,1-.82-.69,3.12,3.12,0,0,1-.43-1,6.36,6.36,0,0,1-.13-1.38V33.61a6.36,6.36,0,0,1,.13-1.38,3.12,3.12,0,0,1,.43-1,1.86,1.86,0,0,1,.82-.69,3.08,3.08,0,0,1,1.32-.22,2.32,2.32,0,0,1,2,.86,4.29,4.29,0,0,1,.61,2.49v2.63a4.29,4.29,0,0,1-.61,2.49A2.32,2.32,0,0,1,123.56,39.58Zm0-1.24a1.08,1.08,0,0,0,.4-.07.55.55,0,0,0,.28-.22,2.12,2.12,0,0,0,.16-.3,1.57,1.57,0,0,0,.09-.42V32.67a2.17,2.17,0,0,0,0-.38,2.7,2.7,0,0,0-.11-.3.62.62,0,0,0-.17-.26,1.05,1.05,0,0,0-.25-.14.9.9,0,0,0-.36,0,.92.92,0,0,0-.36,0,1,1,0,0,0-.25.14.67.67,0,0,0-.17.26,2.36,2.36,0,0,0-.11.3,2.15,2.15,0,0,0,0,.38v4.49a2.13,2.13,0,0,0,0,.38,2.2,2.2,0,0,0,.11.3.71.71,0,0,0,.17.26.84.84,0,0,0,.25.14A1,1,0,0,0,123.56,38.34Z" transform="translate(-12.48 -4.13)"/><path class="cls-1" d="M72.36,48.13,71.42,55h-.74l-1.16-3.85L68.4,55h-.79l-.86-6.82h.79l.57,5.51,1-3.36h.79l1,3.36.58-5.56Z" transform="translate(-12.48 -4.13)"/><path class="cls-1" d="M76.31,52.46H72.9a2,2,0,0,0,.5,1.41,1.57,1.57,0,0,0,1.21.55A4.43,4.43,0,0,0,76,54.17l.13.61a3.77,3.77,0,0,1-1.55.3,2.38,2.38,0,0,1-1.8-.72,2.7,2.7,0,0,1-.7-2,2.82,2.82,0,0,1,.62-1.91,2,2,0,0,1,1.59-.71,1.87,1.87,0,0,1,1.46.66,2.63,2.63,0,0,1,.53,1.83Zm-.82-.62a1.42,1.42,0,0,0-.37-1,1.09,1.09,0,0,0-.82-.41,1.32,1.32,0,0,0-1,.38,1.53,1.53,0,0,0-.43,1Z" transform="translate(-12.48 -4.13)"/><path class="cls-1" d="M77.81,50.56a1.82,1.82,0,0,1,.69-.57,2,2,0,0,1,.91-.21,1.58,1.58,0,0,1,1.32.71,3.19,3.19,0,0,1,.53,1.86,3.43,3.43,0,0,1-.53,1.95,1.61,1.61,0,0,1-1.4.78,1.74,1.74,0,0,1-.88-.24,1.78,1.78,0,0,1-.65-.62V55H77V48.13h.75Zm0,.75v2.09a2.07,2.07,0,0,0,.58.71,1.2,1.2,0,0,0,.75.29,1.09,1.09,0,0,0,1-.58,3,3,0,0,0,0-2.79,1.08,1.08,0,0,0-1-.54A1.61,1.61,0,0,0,77.81,51.31Z" transform="translate(-12.48 -4.13)"/><path class="cls-1" d="M86.48,48.13h1.32a2.73,2.73,0,0,1,2.15.91,3.65,3.65,0,0,1,.8,2.5,3.58,3.58,0,0,1-.82,2.52,2.73,2.73,0,0,1-2.11.9H86.5Zm.79,6.14h.57a1.86,1.86,0,0,0,1.54-.72,3.79,3.79,0,0,0,0-4,1.84,1.84,0,0,0-1.54-.72h-.57Z" transform="translate(-12.48 -4.13)"/><path class="cls-1" d="M95.28,52.46H91.81a2,2,0,0,0,.5,1.41,1.57,1.57,0,0,0,1.21.55,4.43,4.43,0,0,0,1.42-.25l.13.61a3.77,3.77,0,0,1-1.55.3,2.38,2.38,0,0,1-1.8-.72,2.7,2.7,0,0,1-.7-2,2.82,2.82,0,0,1,.62-1.91,2,2,0,0,1,1.59-.71,1.87,1.87,0,0,1,1.46.66,2.63,2.63,0,0,1,.58,1.77Zm-.82-.62a1.42,1.42,0,0,0-.37-1,1.09,1.09,0,0,0-.82-.41,1.32,1.32,0,0,0-1,.38,1.53,1.53,0,0,0-.43,1Z" transform="translate(-12.48 -4.13)"/><path class="cls-1" d="M100,49.9,98.16,55h-.69l-1.9-5h.82l1.42,4,1.42-4Z" transform="translate(-12.48 -4.13)"/><path class="cls-1" d="M104.74,52.46h-3.46a2,2,0,0,0,.5,1.41,1.57,1.57,0,0,0,1.21.55,4.43,4.43,0,0,0,1.42-.25l.13.61a3.77,3.77,0,0,1-1.55.3,2.38,2.38,0,0,1-1.8-.72,2.7,2.7,0,0,1-.7-2,2.82,2.82,0,0,1,.62-1.91,2,2,0,0,1,1.59-.71,1.87,1.87,0,0,1,1.46.66,2.63,2.63,0,0,1,.58,1.77Zm-.82-.62a1.42,1.42,0,0,0-.37-1,1.09,1.09,0,0,0-.82-.41,1.32,1.32,0,0,0-1,.38,1.53,1.53,0,0,0-.43,1Z" transform="translate(-12.48 -4.13)"/><path class="cls-1" d="M108.94,55h-2.07V48.77h-1.32v-.66h2.07v6.18h1.32Z" transform="translate(-12.48 -4.13)"/><path class="cls-1" d="M112.09,49.79a2.06,2.06,0,0,1,1.66.72,2.86,2.86,0,0,1,.62,1.91,2.9,2.9,0,0,1-.62,1.92,2.24,2.24,0,0,1-3.16.14l-.14-.14a2.9,2.9,0,0,1-.61-1.92,2.86,2.86,0,0,1,.62-1.91A2.06,2.06,0,0,1,112.09,49.79Zm0,4.64a1.32,1.32,0,0,0,1.08-.58,2.75,2.75,0,0,0,0-2.81A1.32,1.32,0,0,0,111,51a2.81,2.81,0,0,0,0,2.86A1.24,1.24,0,0,0,112.09,54.42Z" transform="translate(-12.48 -4.13)"/><path class="cls-1" d="M115.63,50.56a1.82,1.82,0,0,1,.69-.57,2,2,0,0,1,.91-.21,1.57,1.57,0,0,1,1.32.72,3.23,3.23,0,0,1,.5,1.87,3.39,3.39,0,0,1-.53,1.94,1.61,1.61,0,0,1-1.4.78,1.74,1.74,0,0,1-.88-.24,1.78,1.78,0,0,1-.65-.62V57h-.75v-7h.75Zm0,.75v2.09a2.07,2.07,0,0,0,.58.71,1.2,1.2,0,0,0,.75.29,1.11,1.11,0,0,0,1-.57,3.07,3.07,0,0,0,0-2.85,1.07,1.07,0,0,0-1-.55A1.61,1.61,0,0,0,115.63,51.31Z" transform="translate(-12.48 -4.13)"/><path class="cls-1" d="M123.65,52.46h-3.46a2,2,0,0,0,.5,1.41,1.57,1.57,0,0,0,1.21.55,4.43,4.43,0,0,0,1.42-.25l.13.61a3.77,3.77,0,0,1-1.55.3,2.38,2.38,0,0,1-1.8-.72,2.7,2.7,0,0,1-.69-1.95A2.82,2.82,0,0,1,120,50.5a2,2,0,0,1,1.59-.71,1.87,1.87,0,0,1,1.46.66,2.63,2.63,0,0,1,.58,1.77Zm-.82-.62a1.42,1.42,0,0,0-.37-1,1.09,1.09,0,0,0-.82-.41,1.32,1.32,0,0,0-1,.38,1.53,1.53,0,0,0-.43,1Z" transform="translate(-12.48 -4.13)"/><path class="cls-1" d="M128.3,50l-.3.72a2.21,2.21,0,0,0-.86-.22,1.32,1.32,0,0,0-.66.2,2.09,2.09,0,0,0-.59.55,2,2,0,0,0-.26.4V55h-.75V49.9h.75v1a1.79,1.79,0,0,1,1.57-1.15A2.54,2.54,0,0,1,128.3,50Z" transform="translate(-12.48 -4.13)"/><rect class="cls-1" x="6.48" y="40.62" width="20.68" height="4.19"/><rect class="cls-1" x="6.6" y="46.45" width="20.68" height="4.19"/><path class="cls-1" d="M23.13,56.31H35.62s-.11,3-6.26,3S23.13,56.31,23.13,56.31Z" transform="translate(-12.48 -4.13)"/><polygon class="cls-2" points="16.91 0.08 20.96 0.08 16.84 38.6 12.78 38.6 16.91 0.08"/><path class="cls-2" d="M34.52,7.26v-3c3.81-.47,6.93.59,7.26,5.2.14,2.06.13,4.12.22,6.18a25.13,25.13,0,0,0,.25,2.86,3.69,3.69,0,0,0,3.56,3.33h.3v3.28l-.74.12a3.37,3.37,0,0,0-3,2.85c-.29,1.8-.3,3.66-.42,5.49a44.37,44.37,0,0,1-.28,4.78,4.8,4.8,0,0,1-5.08,4.47H34.52V39.67a7.75,7.75,0,0,0,1.92-.16,1.94,1.94,0,0,0,1.95-1.92s0,0,0,0a18.11,18.11,0,0,0,.17-2.25c0-1.86,0-3.71.13-5.57a6.59,6.59,0,0,1,4-6.22,2.63,2.63,0,0,0-.29-.21,6.26,6.26,0,0,1-3.68-5.51c-.14-2.42-.16-4.85-.24-7.28A9.06,9.06,0,0,0,38.29,9a1.82,1.82,0,0,0-1.66-1.54C36,7.37,35.3,7.33,34.52,7.26Z" transform="translate(-12.48 -4.13)"/><path class="cls-2" d="M15.87,23.48l.25.14a6,6,0,0,1,3.62,5.16c.2,2.31.2,4.62.29,6.94a16.6,16.6,0,0,0,.18,2.13,1.84,1.84,0,0,0,1.7,1.62c.69.08,1.38.12,2.11.18v3.12a11.39,11.39,0,0,1-4-.36,4.86,4.86,0,0,1-3.27-4.57c-.14-2-.16-4-.24-6a22.62,22.62,0,0,0-.21-3,3.82,3.82,0,0,0-3.82-3.82h-.05V21.86h.32a3.66,3.66,0,0,0,3.52-3.29c.17-1.2.22-2.42.28-3.64.08-1.9.11-3.79.2-5.68a6,6,0,0,1,.3-1.45,4.54,4.54,0,0,1,4.24-3.52c.87-.07,1.77,0,2.63,0v3a12.22,12.22,0,0,0-2,.18A1.88,1.88,0,0,0,20.15,9.3,21.25,21.25,0,0,0,20,11.73c-.08,2.08,0,4.16-.24,6.23a6.1,6.1,0,0,1-3.62,5.41Z" transform="translate(-12.48 -4.13)"/></svg>