<svg id="Layer_1" data-name="Layer 1" xmlns="http://www.w3.org/2000/svg" viewBox="0 0 87.91 41.96"><defs><style>.cls-1{fill:#fff;}.cls-2{fill:#f3c317;}</style></defs><title>logo_cambios</title><path class="cls-1" d="M78.64,19.26V9.64h3.72v1H80v3.18h1.94v1H80V18.3H82.4v1Z" transform="translate(-31.56 -6.4)"/><path class="cls-1" d="M85,19.36a1.43,1.43,0,0,1-1.31-.64,4.17,4.17,0,0,1-.41-2.15V15.23q0-.51,0-.91a4.3,4.3,0,0,1,.15-.79,2.2,2.2,0,0,1,.29-.65,1.33,1.33,0,0,1,.48-.42,1.51,1.51,0,0,1,.71-.16,1.58,1.58,0,0,1,1.14.53V9.64h1.27v9.62H86.06v-.44A1.48,1.48,0,0,1,85,19.36Zm.32-1a1.47,1.47,0,0,0,.78-.26V13.6a1.38,1.38,0,0,0-.8-.3q-.75,0-.75,1.43v1.94q0,.32,0,.55a3.36,3.36,0,0,0,.06.46,1.17,1.17,0,0,0,.13.37.64.64,0,0,0,.23.22A.65.65,0,0,0,85.29,18.35Z" transform="translate(-31.56 -6.4)"/><path class="cls-1" d="M89.6,19.35a1,1,0,0,1-.5-.12.81.81,0,0,1-.32-.33,1.66,1.66,0,0,1-.16-.44,2.57,2.57,0,0,1,0-.5V12.39h1.27v5.19a1.16,1.16,0,0,0,.12.59.46.46,0,0,0,.43.19,1.48,1.48,0,0,0,.89-.42V12.39h1.27v6.87H91.28v-.68A2.43,2.43,0,0,1,89.6,19.35Z" transform="translate(-31.56 -6.4)"/><path class="cls-1" d="M95.08,19.36a1.22,1.22,0,0,1-1-.48,1.7,1.7,0,0,1-.4-1.11,2.35,2.35,0,0,1,.16-.88,2.92,2.92,0,0,1,.34-.64,2.12,2.12,0,0,1,.62-.51,7.6,7.6,0,0,1,.69-.37l.85-.36.05,0v-.49a2.36,2.36,0,0,0-.14-.95.55.55,0,0,0-.55-.28q-.72,0-.72,1v.34l-1.26,0q0-.1,0-.26a2.1,2.1,0,0,1,.57-1.5,2.12,2.12,0,0,1,1.48-.47,1.74,1.74,0,0,1,1.43.54,2.55,2.55,0,0,1,.44,1.63v3.14a12.49,12.49,0,0,0,.12,1.65H96.64a10,10,0,0,1-.17-1A1.78,1.78,0,0,1,96,19,1.27,1.27,0,0,1,95.08,19.36Zm.5-1.1a.75.75,0,0,0,.48-.19,1.59,1.59,0,0,0,.35-.38V15.74a6.9,6.9,0,0,0-.88.56A1.35,1.35,0,0,0,95,17.37a1.15,1.15,0,0,0,.16.65A.51.51,0,0,0,95.58,18.26Z" transform="translate(-31.56 -6.4)"/><path class="cls-1" d="M98.94,19.26V12.39h1.27v1a2.45,2.45,0,0,1,.73-.83,1.45,1.45,0,0,1,.79-.24h.21v1.4a2,2,0,0,0-.7-.13,1.08,1.08,0,0,0-.56.14,1.51,1.51,0,0,0-.47.51v5Z" transform="translate(-31.56 -6.4)"/><path class="cls-1" d="M104.31,19.36a1.43,1.43,0,0,1-1.31-.64,4.17,4.17,0,0,1-.41-2.15V15.23q0-.51,0-.91a4.3,4.3,0,0,1,.15-.79,2.2,2.2,0,0,1,.29-.65,1.33,1.33,0,0,1,.48-.42,1.51,1.51,0,0,1,.71-.16,1.58,1.58,0,0,1,1.14.53V9.64h1.27v9.62h-1.27v-.44A1.48,1.48,0,0,1,104.31,19.36Zm.32-1a1.47,1.47,0,0,0,.78-.26V13.6a1.38,1.38,0,0,0-.8-.3q-.75,0-.75,1.43v1.94q0,.32,0,.55a3.36,3.36,0,0,0,.06.46,1.17,1.17,0,0,0,.13.37.64.64,0,0,0,.23.22A.65.65,0,0,0,104.63,18.35Z" transform="translate(-31.56 -6.4)"/><path class="cls-1" d="M109.84,19.36a2.34,2.34,0,0,1-1-.17,1.41,1.41,0,0,1-.62-.52,2.37,2.37,0,0,1-.33-.79,4.83,4.83,0,0,1-.1-1.05v-2a4.83,4.83,0,0,1,.1-1.05,2.37,2.37,0,0,1,.33-.79,1.41,1.41,0,0,1,.62-.52,2.34,2.34,0,0,1,1-.17,1.76,1.76,0,0,1,1.54.65,3.26,3.26,0,0,1,.46,1.89v2a3.26,3.26,0,0,1-.46,1.89A1.76,1.76,0,0,1,109.84,19.36Zm0-.94a.82.82,0,0,0,.3-.05.42.42,0,0,0,.21-.17,1.62,1.62,0,0,0,.12-.23,1.19,1.19,0,0,0,.07-.32q0-.21,0-.34t0-.39V14.75q0-.22,0-.33t0-.3a1.65,1.65,0,0,0,0-.29,2.05,2.05,0,0,0-.08-.23.47.47,0,0,0-.13-.2.8.8,0,0,0-.19-.11.68.68,0,0,0-.27,0,.7.7,0,0,0-.27,0,.74.74,0,0,0-.19.11.51.51,0,0,0-.13.2,1.79,1.79,0,0,0-.08.23,1.63,1.63,0,0,0,0,.29q0,.19,0,.3t0,.33V16.9q0,.22,0,.33t0,.3a1.63,1.63,0,0,0,0,.29,1.67,1.67,0,0,0,.08.23.54.54,0,0,0,.13.2.64.64,0,0,0,.19.11A.74.74,0,0,0,109.84,18.42Z" transform="translate(-31.56 -6.4)"/><path class="cls-1" d="M73,33.2l-2.15-9.62h1.25l1.52,7.08,1.45-7.08h1.22L74.18,33.2Z" transform="translate(-31.56 -6.4)"/><path class="cls-1" d="M77.31,25.32V24h1.28v1.33Zm0,7.88V26.33h1.27V33.2Z" transform="translate(-31.56 -6.4)"/><path class="cls-1" d="M80.06,33.2V23.58h1.28V33.2Z" transform="translate(-31.56 -6.4)"/><path class="cls-1" d="M82.78,33.2V23.58h1.28V33.2Z" transform="translate(-31.56 -6.4)"/><path class="cls-1" d="M86.62,33.3a1.22,1.22,0,0,1-1-.48,1.7,1.7,0,0,1-.4-1.11,2.35,2.35,0,0,1,.16-.88,2.92,2.92,0,0,1,.34-.64,2.12,2.12,0,0,1,.62-.51A7.6,7.6,0,0,1,87,29.3l.85-.36.05,0v-.49a2.36,2.36,0,0,0-.14-.95.55.55,0,0,0-.55-.28q-.72,0-.72,1v.34l-1.26,0q0-.1,0-.26a1.82,1.82,0,0,1,2.05-2,1.74,1.74,0,0,1,1.43.54,2.55,2.55,0,0,1,.44,1.63v3.14a12.49,12.49,0,0,0,.12,1.65H88.18a10,10,0,0,1-.17-1,1.78,1.78,0,0,1-.5.79A1.27,1.27,0,0,1,86.62,33.3Zm.5-1.1A.75.75,0,0,0,87.6,32a1.59,1.59,0,0,0,.35-.38V29.69a6.9,6.9,0,0,0-.88.56,1.35,1.35,0,0,0-.56,1.07,1.15,1.15,0,0,0,.16.65A.51.51,0,0,0,87.12,32.2Z" transform="translate(-31.56 -6.4)"/><path class="cls-1" d="M90.56,33.2V23.58h1.28V33.2Z" transform="translate(-31.56 -6.4)"/><path class="cls-1" d="M93.17,35.46V26.33h1.27v.55a1.66,1.66,0,0,1,1.31-.64,1.39,1.39,0,0,1,.61.13,1.11,1.11,0,0,1,.43.36,2.75,2.75,0,0,1,.28.49,2.31,2.31,0,0,1,.16.57q0,.32.07.55t0,.48v1.66q0,2.82-1.71,2.82a1.58,1.58,0,0,1-1.17-.61v2.77Zm2.18-3.17a.62.62,0,0,0,.28-.06.46.46,0,0,0,.19-.19,1.55,1.55,0,0,0,.12-.27A1.68,1.68,0,0,0,96,31.4q0-.23,0-.43t0-.49V28.82q0-.29,0-.5A3.33,3.33,0,0,0,96,27.9a1.18,1.18,0,0,0-.12-.35.6.6,0,0,0-.54-.3,1.36,1.36,0,0,0-.86.35V32A1.52,1.52,0,0,0,95.35,32.3Z" transform="translate(-31.56 -6.4)"/><path class="cls-1" d="M99.7,33.3a1.22,1.22,0,0,1-1-.48,1.7,1.7,0,0,1-.4-1.11,2.35,2.35,0,0,1,.16-.88,2.92,2.92,0,0,1,.34-.64,2.12,2.12,0,0,1,.62-.51,7.6,7.6,0,0,1,.69-.37l.85-.36.05,0v-.49a2.36,2.36,0,0,0-.14-.95.55.55,0,0,0-.55-.28q-.72,0-.72,1v.34l-1.26,0q0-.1,0-.26a1.82,1.82,0,0,1,2.05-2,1.74,1.74,0,0,1,1.43.54,2.55,2.55,0,0,1,.44,1.63v3.14a12.49,12.49,0,0,0,.12,1.65h-1.16a10,10,0,0,1-.17-1,1.78,1.78,0,0,1-.5.79A1.27,1.27,0,0,1,99.7,33.3Zm.5-1.1a.75.75,0,0,0,.48-.19,1.59,1.59,0,0,0,.35-.38V29.69a6.9,6.9,0,0,0-.88.56,1.35,1.35,0,0,0-.56,1.07,1.15,1.15,0,0,0,.16.65A.51.51,0,0,0,100.2,32.2Z" transform="translate(-31.56 -6.4)"/><path class="cls-1" d="M103.53,33.2V26.33h1.27V27a2.44,2.44,0,0,1,1.68-.77,1,1,0,0,1,.5.12.81.81,0,0,1,.32.33,1.68,1.68,0,0,1,.16.44,2.58,2.58,0,0,1,0,.5V33.2h-1.27V28a1.16,1.16,0,0,0-.12-.59.46.46,0,0,0-.43-.19,1.48,1.48,0,0,0-.89.42V33.2Z" transform="translate(-31.56 -6.4)"/><path class="cls-1" d="M110.34,33.3a1.43,1.43,0,0,1-1.31-.64,4.17,4.17,0,0,1-.41-2.15V29.17q0-.51,0-.91a4.3,4.3,0,0,1,.15-.79,2.2,2.2,0,0,1,.29-.65,1.33,1.33,0,0,1,.48-.42,1.51,1.51,0,0,1,.71-.16,1.58,1.58,0,0,1,1.14.53V23.58h1.27V33.2h-1.27v-.44A1.48,1.48,0,0,1,110.34,33.3Zm.32-1a1.47,1.47,0,0,0,.78-.26v-4.5a1.38,1.38,0,0,0-.8-.3q-.75,0-.75,1.43v1.94q0,.32,0,.55a3.36,3.36,0,0,0,.06.46,1.17,1.17,0,0,0,.13.37.64.64,0,0,0,.23.22A.65.65,0,0,0,110.66,32.3Z" transform="translate(-31.56 -6.4)"/><path class="cls-1" d="M115.87,33.3a2.34,2.34,0,0,1-1-.17,1.41,1.41,0,0,1-.62-.52,2.37,2.37,0,0,1-.33-.79,4.83,4.83,0,0,1-.1-1.05v-2a4.83,4.83,0,0,1,.1-1.05,2.37,2.37,0,0,1,.33-.79,1.41,1.41,0,0,1,.62-.52,2.34,2.34,0,0,1,1-.17,1.76,1.76,0,0,1,1.54.65,3.26,3.26,0,0,1,.46,1.89v2a3.26,3.26,0,0,1-.46,1.89A1.76,1.76,0,0,1,115.87,33.3Zm0-.94a.82.82,0,0,0,.3-.05.42.42,0,0,0,.21-.17,1.61,1.61,0,0,0,.12-.23,1.19,1.19,0,0,0,.07-.32q0-.21,0-.34c0-.09,0-.22,0-.39V28.69q0-.22,0-.33t0-.3a1.65,1.65,0,0,0,0-.29,2.05,2.05,0,0,0-.08-.23.47.47,0,0,0-.13-.2.8.8,0,0,0-.19-.11.68.68,0,0,0-.27,0,.7.7,0,0,0-.27,0,.74.74,0,0,0-.19.11.51.51,0,0,0-.13.2,1.79,1.79,0,0,0-.08.23,1.63,1.63,0,0,0,0,.29q0,.19,0,.3t0,.33v2.15q0,.22,0,.33t0,.3a1.62,1.62,0,0,0,0,.29,1.67,1.67,0,0,0,.08.23.54.54,0,0,0,.13.2.64.64,0,0,0,.19.11A.73.73,0,0,0,115.87,32.36Z" transform="translate(-31.56 -6.4)"/><path class="cls-1" d="M77,39.79,76.29,45h-.56l-.88-2.92L74,45H73.4l-.65-5.18h.6L73.78,44l.76-2.55h.6L75.92,44l.44-4.22Z" transform="translate(-31.56 -6.4)"/><path class="cls-1" d="M80,43.08H77.41a1.55,1.55,0,0,0,.38,1.07,1.19,1.19,0,0,0,.92.42,3.36,3.36,0,0,0,1.08-.19l.1.46a2.86,2.86,0,0,1-1.18.23,1.81,1.81,0,0,1-1.37-.55A2.05,2.05,0,0,1,76.81,43a2.14,2.14,0,0,1,.47-1.45,1.53,1.53,0,0,1,1.21-.54,1.42,1.42,0,0,1,1.11.5A2,2,0,0,1,80,42.9Zm-.62-.47a1.08,1.08,0,0,0-.28-.75.83.83,0,0,0-.62-.31,1,1,0,0,0-.74.29,1.16,1.16,0,0,0-.33.77Z" transform="translate(-31.56 -6.4)"/><path class="cls-1" d="M81.14,41.64a1.38,1.38,0,0,1,.52-.43,1.52,1.52,0,0,1,.69-.16,1.2,1.2,0,0,1,1,.54A2.42,2.42,0,0,1,83.75,43a2.6,2.6,0,0,1-.4,1.48,1.22,1.22,0,0,1-1.06.59,1.32,1.32,0,0,1-.67-.18,1.35,1.35,0,0,1-.49-.47V45h-.57V39.79h.57Zm0,.57V43.8a1.57,1.57,0,0,0,.44.54.91.91,0,0,0,.57.22.83.83,0,0,0,.74-.44A2,2,0,0,0,83.15,43,2,2,0,0,0,82.89,42a.82.82,0,0,0-.73-.41A1.22,1.22,0,0,0,81.14,42.21Z" transform="translate(-31.56 -6.4)"/><path class="cls-1" d="M87.72,39.79h1a2.07,2.07,0,0,1,1.63.69,2.77,2.77,0,0,1,.61,1.9,2.72,2.72,0,0,1-.62,1.91,2.07,2.07,0,0,1-1.6.68h-1Zm.6,4.66h.43a1.41,1.41,0,0,0,1.17-.55,2.88,2.88,0,0,0,0-3,1.4,1.4,0,0,0-1.17-.55h-.43Z" transform="translate(-31.56 -6.4)"/><path class="cls-1" d="M94.4,43.08H91.77a1.55,1.55,0,0,0,.38,1.07,1.19,1.19,0,0,0,.92.42,3.36,3.36,0,0,0,1.08-.19l.1.46a2.86,2.86,0,0,1-1.18.23,1.81,1.81,0,0,1-1.37-.55A2.05,2.05,0,0,1,91.17,43a2.14,2.14,0,0,1,.47-1.45,1.53,1.53,0,0,1,1.21-.54,1.42,1.42,0,0,1,1.11.5,2,2,0,0,1,.44,1.34Zm-.62-.47a1.08,1.08,0,0,0-.28-.75.83.83,0,0,0-.62-.31,1,1,0,0,0-.74.29,1.16,1.16,0,0,0-.33.77Z" transform="translate(-31.56 -6.4)"/><path class="cls-1" d="M98,41.14,96.59,45h-.52l-1.44-3.83h.62l1.08,3,1.08-3Z" transform="translate(-31.56 -6.4)"/><path class="cls-1" d="M101.58,43.08H98.95a1.55,1.55,0,0,0,.38,1.07,1.19,1.19,0,0,0,.92.42,3.36,3.36,0,0,0,1.08-.19l.1.46a2.86,2.86,0,0,1-1.18.23,1.81,1.81,0,0,1-1.37-.55A2.05,2.05,0,0,1,98.35,43a2.14,2.14,0,0,1,.47-1.45,1.53,1.53,0,0,1,1.21-.54,1.42,1.42,0,0,1,1.11.5,2,2,0,0,1,.44,1.34Zm-.62-.47a1.08,1.08,0,0,0-.28-.75.83.83,0,0,0-.62-.31,1,1,0,0,0-.74.29,1.16,1.16,0,0,0-.33.77Z" transform="translate(-31.56 -6.4)"/><path class="cls-1" d="M104.77,45h-1.57V40.28h-1v-.5h1.57v4.69h1Z" transform="translate(-31.56 -6.4)"/><path class="cls-1" d="M107.16,41.05a1.56,1.56,0,0,1,1.26.55,2.17,2.17,0,0,1,.47,1.45,2.2,2.2,0,0,1-.47,1.46,1.7,1.7,0,0,1-2.51,0,2.2,2.2,0,0,1-.46-1.46,2.17,2.17,0,0,1,.47-1.45A1.56,1.56,0,0,1,107.16,41.05Zm0,3.52a1,1,0,0,0,.82-.44A2.09,2.09,0,0,0,108,42a1,1,0,0,0-1.65,0,2.13,2.13,0,0,0,0,2.17A.94.94,0,0,0,107.16,44.57Z" transform="translate(-31.56 -6.4)"/><path class="cls-1" d="M109.85,41.64a1.38,1.38,0,0,1,.52-.43,1.52,1.52,0,0,1,.69-.16,1.19,1.19,0,0,1,1,.55,2.45,2.45,0,0,1,.38,1.42,2.57,2.57,0,0,1-.4,1.47,1.22,1.22,0,0,1-1.06.59,1.32,1.32,0,0,1-.67-.18,1.35,1.35,0,0,1-.49-.47v2.06h-.57V41.14h.57Zm0,.57V43.8a1.57,1.57,0,0,0,.44.54.91.91,0,0,0,.57.22.84.84,0,0,0,.74-.43,2,2,0,0,0,.27-1.08,2,2,0,0,0-.26-1.08.81.81,0,0,0-.73-.42A1.22,1.22,0,0,0,109.85,42.21Z" transform="translate(-31.56 -6.4)"/><path class="cls-1" d="M115.94,43.08h-2.63a1.55,1.55,0,0,0,.38,1.07,1.19,1.19,0,0,0,.92.42,3.36,3.36,0,0,0,1.08-.19l.1.46a2.86,2.86,0,0,1-1.18.23,1.81,1.81,0,0,1-1.37-.55,2.05,2.05,0,0,1-.52-1.48,2.14,2.14,0,0,1,.47-1.45,1.53,1.53,0,0,1,1.21-.54,1.42,1.42,0,0,1,1.11.5,2,2,0,0,1,.44,1.34Zm-.62-.47a1.08,1.08,0,0,0-.28-.75.83.83,0,0,0-.62-.31,1,1,0,0,0-.74.29,1.16,1.16,0,0,0-.33.77Z" transform="translate(-31.56 -6.4)"/><path class="cls-1" d="M119.47,41.25l-.23.55a1.68,1.68,0,0,0-.65-.17,1,1,0,0,0-.5.15,1.59,1.59,0,0,0-.45.42,1.5,1.5,0,0,0-.2.3V45h-.57V41.14h.57v.78a1.36,1.36,0,0,1,1.19-.87A1.93,1.93,0,0,1,119.47,41.25Z" transform="translate(-31.56 -6.4)"/><rect class="cls-1" x="4.91" y="30.83" width="15.7" height="3.18"/><rect class="cls-1" x="5" y="35.25" width="15.7" height="3.18"/><path class="cls-1" d="M39.63,46h9.48s-.08,2.31-4.75,2.31S39.63,46,39.63,46Z" transform="translate(-31.56 -6.4)"/><polygon class="cls-2" points="12.83 0.05 15.9 0.05 12.77 29.29 9.69 29.29 12.83 0.05"/><path class="cls-2" d="M48.28,8.77V6.47c2.89-.36,5.26.45,5.51,3.95.11,1.56.1,3.13.17,4.69a19.08,19.08,0,0,0,.19,2.17,2.8,2.8,0,0,0,2.7,2.53l.23,0V22.3l-.56.09a2.56,2.56,0,0,0-2.28,2.16c-.22,1.37-.23,2.78-.32,4.17-.08,1.21,0,2.44-.21,3.63a3.64,3.64,0,0,1-3.86,3.39c-.51,0-1,0-1.57,0V33.37c.49,0,1,0,1.46-.12a1.47,1.47,0,0,0,1.48-1.49,13.75,13.75,0,0,0,.13-1.71c0-1.41,0-2.82.1-4.23a5,5,0,0,1,3-4.72,2,2,0,0,0-.22-.16,4.75,4.75,0,0,1-2.79-4.18c-.11-1.84-.12-3.68-.18-5.53a6.88,6.88,0,0,0-.12-1.16,1.38,1.38,0,0,0-1.26-1.17C49.4,8.85,48.87,8.82,48.28,8.77Z" transform="translate(-31.56 -6.4)"/><path class="cls-2" d="M34.12,21.08l.19.11a4.53,4.53,0,0,1,2.75,3.92c.15,1.75.15,3.51.22,5.27A12.6,12.6,0,0,0,37.42,32a1.4,1.4,0,0,0,1.29,1.23c.52.06,1.05.09,1.6.14v2.37a8.65,8.65,0,0,1-3-.27A3.69,3.69,0,0,1,34.83,32c-.11-1.5-.12-3-.18-4.52,0-.75-.06-1.51-.16-2.26a2.9,2.9,0,0,0-2.94-2.9V19.85l.24,0a2.78,2.78,0,0,0,2.67-2.5c.13-.91.17-1.84.21-2.76.06-1.44.08-2.88.15-4.31a4.59,4.59,0,0,1,.23-1.1,3.45,3.45,0,0,1,3.22-2.67c.66-.05,1.34,0,2,0V8.77c-.5,0-1,.06-1.49.14a1.43,1.43,0,0,0-1.41,1.41,16.13,16.13,0,0,0-.14,1.84c-.06,1.58,0,3.16-.18,4.73A4.63,4.63,0,0,1,34.3,21Z" transform="translate(-31.56 -6.4)"/></svg>